<svg width="74" height="73" viewBox="0 0 74 73" fill="none" xmlns="http://www.w3.org/2000/svg">
<path d="M5.852 68H3.332V60.412H0.392V58.2H8.806V60.412H5.852V68ZM13.7846 64.444C13.7846 63.534 13.1266 62.82 12.2166 62.82C11.3066 62.82 10.6486 63.534 10.6486 64.444C10.6486 65.382 11.3066 66.068 12.2166 66.068C13.1266 66.068 13.7846 65.382 13.7846 64.444ZM15.0866 67.118C14.3306 67.832 13.3786 68.182 12.2166 68.182C11.0546 68.182 10.1026 67.832 9.34664 67.118C8.59064 66.404 8.21264 65.508 8.21264 64.444C8.21264 63.38 8.59064 62.498 9.34664 61.784C10.1026 61.07 11.0546 60.706 12.2166 60.706C13.3786 60.706 14.3306 61.07 15.0866 61.784C15.8426 62.498 16.2206 63.38 16.2206 64.444C16.2206 65.508 15.8426 66.404 15.0866 67.118ZM19.957 70.8H17.479V60.888H19.957V61.686C20.447 61.028 21.147 60.706 22.085 60.706C23.023 60.706 23.793 61.07 24.409 61.784C25.025 62.498 25.333 63.38 25.333 64.444C25.333 65.508 25.025 66.404 24.409 67.118C23.793 67.832 23.023 68.182 22.085 68.182C21.175 68.182 20.461 67.86 19.957 67.202V70.8ZM21.371 66.082C22.253 66.082 22.869 65.382 22.869 64.444C22.869 63.506 22.253 62.806 21.371 62.806C20.741 62.806 20.279 63.058 19.957 63.562V65.326C20.279 65.83 20.741 66.082 21.371 66.082ZM34.1155 68H30.2095V58.2H34.1155C35.7115 58.2 37.0135 58.662 38.0215 59.572C39.0295 60.482 39.5335 61.658 39.5335 63.1C39.5335 64.542 39.0295 65.732 38.0215 66.642C37.0135 67.552 35.7115 68 34.1155 68ZM32.7295 60.412V65.788H33.9335C35.8375 65.788 36.9295 64.822 36.9295 63.1C36.9295 61.378 35.8375 60.412 33.9335 60.412H32.7295ZM43.3633 68H40.8853V60.888H43.3633V62.05C43.5312 61.728 43.8393 61.42 44.2733 61.14C44.7213 60.846 45.1973 60.706 45.7013 60.706C45.8273 60.706 45.9393 60.72 46.0093 60.734V63.128C45.7153 63.058 45.4353 63.016 45.1693 63.016C44.3293 63.016 43.6433 63.366 43.3633 63.87V68ZM49.777 68H47.299V60.888H49.777V68ZM48.531 60.244C47.747 60.244 47.117 59.614 47.117 58.816C47.117 58.018 47.747 57.388 48.531 57.388C49.329 57.388 49.959 58.018 49.959 58.816C49.959 59.614 49.329 60.244 48.531 60.244ZM56.043 68.056H53.803L50.793 60.888H53.425L54.965 64.976L56.505 60.888H59.053L56.043 68.056ZM63.3621 68.182C62.2561 68.182 61.3181 67.846 60.5481 67.174C59.7781 66.488 59.4001 65.578 59.4001 64.444C59.4001 63.394 59.7501 62.498 60.4361 61.784C61.1221 61.07 62.0321 60.706 63.1661 60.706C64.1741 60.706 65.0001 61.056 65.6301 61.756C66.2741 62.442 66.5961 63.338 66.5961 64.43V65.046H61.8361C62.0461 65.788 62.8861 66.152 63.9081 66.152C64.6781 66.152 65.4481 65.942 66.1901 65.536V67.44C65.5181 67.93 64.5801 68.182 63.3621 68.182ZM61.8221 63.73H64.1741C64.1601 63.016 63.6561 62.526 63.0541 62.526C62.3961 62.526 61.9201 62.988 61.8221 63.73ZM70.3925 68H67.9145V60.888H70.3925V62.05C70.5605 61.728 70.8685 61.42 71.3025 61.14C71.7505 60.846 72.2265 60.706 72.7305 60.706C72.8565 60.706 72.9685 60.72 73.0385 60.734V63.128C72.7445 63.058 72.4645 63.016 72.1985 63.016C71.3585 63.016 70.6725 63.366 70.3925 63.87V68Z" fill="white"/>
<path d="M18.1357 20.8927H31.3047V36.5623H42.554V20.8927H55.723V37.9937C55.723 44.0725 50.2874 49 43.5817 49H18.2021L18.1357 20.8927Z" fill="white"/>
<path d="M18.0346 0H43.3103C50.3191 0 56 5.14991 56 11.5036V11.938H18L18.0346 0Z" fill="white"/>
</svg>
