<svg width="192" height="148" viewBox="0 0 192 148" fill="none" xmlns="http://www.w3.org/2000/svg">
<path d="M15.2793 134.93H8.69972V115.118H1.0235V109.343H22.9921V115.118H15.2793V134.93ZM35.9912 125.646C35.9912 123.27 34.2731 121.405 31.8972 121.405C29.5212 121.405 27.8032 123.27 27.8032 125.646C27.8032 128.095 29.5212 129.886 31.8972 129.886C34.2731 129.886 35.9912 128.095 35.9912 125.646ZM39.3906 132.627C37.4167 134.492 34.9311 135.405 31.8972 135.405C28.8632 135.405 26.3776 134.492 24.4037 132.627C22.4298 130.763 21.4429 128.424 21.4429 125.646C21.4429 122.868 22.4298 120.565 24.4037 118.701C26.3776 116.836 28.8632 115.886 31.8972 115.886C34.9311 115.886 37.4167 116.836 39.3906 118.701C41.3645 120.565 42.3515 122.868 42.3515 125.646C42.3515 128.424 41.3645 130.763 39.3906 132.627ZM52.1069 142.241H45.637V116.361H52.1069V118.445C53.3863 116.727 55.214 115.886 57.6631 115.886C60.1121 115.886 62.1226 116.836 63.7309 118.701C65.3393 120.565 66.1435 122.868 66.1435 125.646C66.1435 128.424 65.3393 130.763 63.7309 132.627C62.1226 134.492 60.1121 135.405 57.6631 135.405C55.2871 135.405 53.4229 134.565 52.1069 132.847V142.241ZM55.7988 129.922C58.1017 129.922 59.7101 128.095 59.7101 125.646C59.7101 123.197 58.1017 121.369 55.7988 121.369C54.1539 121.369 52.9477 122.027 52.1069 123.343V127.949C52.9477 129.264 54.1539 129.922 55.7988 129.922ZM89.0742 134.93H78.8758V109.343H89.0742C93.2413 109.343 96.6408 110.549 99.2726 112.925C101.904 115.301 103.22 118.372 103.22 122.137C103.22 125.902 101.904 129.009 99.2726 131.385C96.6408 133.761 93.2413 134.93 89.0742 134.93ZM85.4554 115.118V129.155H88.599C93.5703 129.155 96.4214 126.633 96.4214 122.137C96.4214 117.64 93.5703 115.118 88.599 115.118H85.4554ZM113.22 134.93H106.75V116.361H113.22V119.395C113.658 118.554 114.463 117.75 115.596 117.019C116.765 116.251 118.008 115.886 119.324 115.886C119.653 115.886 119.946 115.922 120.128 115.959V122.21C119.361 122.027 118.63 121.917 117.935 121.917C115.742 121.917 113.951 122.831 113.22 124.147V134.93ZM129.966 134.93H123.496V116.361H129.966V134.93ZM126.713 114.68C124.666 114.68 123.021 113.035 123.021 110.951C123.021 108.868 124.666 107.223 126.713 107.223C128.796 107.223 130.441 108.868 130.441 110.951C130.441 113.035 128.796 114.68 126.713 114.68ZM146.326 135.076H140.477L132.618 116.361H139.491L143.511 127.035L147.532 116.361H154.185L146.326 135.076ZM165.436 135.405C162.548 135.405 160.099 134.528 158.089 132.774C156.078 130.982 155.091 128.606 155.091 125.646C155.091 122.904 156.005 120.565 157.796 118.701C159.587 116.836 161.963 115.886 164.924 115.886C167.556 115.886 169.713 116.8 171.358 118.627C173.039 120.419 173.88 122.758 173.88 125.609V127.217H161.452C162 129.155 164.193 130.105 166.862 130.105C168.872 130.105 170.883 129.557 172.82 128.497V133.468C171.065 134.747 168.616 135.405 165.436 135.405ZM161.415 123.781H167.556C167.52 121.917 166.204 120.638 164.632 120.638C162.914 120.638 161.671 121.844 161.415 123.781ZM183.792 134.93H177.322V116.361H183.792V119.395C184.231 118.554 185.035 117.75 186.168 117.019C187.338 116.251 188.581 115.886 189.897 115.886C190.226 115.886 190.518 115.922 190.701 115.959V122.21C189.933 122.027 189.202 121.917 188.508 121.917C186.314 121.917 184.523 122.831 183.792 124.147V134.93Z" fill="white"/>
<path d="M63.2407 40.0799H86.1131V70.1398H105.651V40.0799H128.524V72.8858C128.524 84.5473 119.083 94 107.436 94H63.356L63.2407 40.0799Z" fill="#67943F"/>
<path d="M63.0602 0H106.96C119.133 0 129 9.87941 129 22.068V22.9014H63L63.0602 0Z" fill="#A4BE3A"/>
</svg>
