<svg width="21" height="20" viewBox="0 0 21 20" fill="none" xmlns="http://www.w3.org/2000/svg">
<g clip-path="url(#clip0_23_3339)">
<path d="M19.2943 0.956689C18.7278 0.39102 17.9599 0.0733032 17.1593 0.0733032C16.3587 0.0733032 15.5908 0.39102 15.0243 0.956689L1.47097 14.51C1.08284 14.896 0.775103 15.355 0.56555 15.8607C0.355996 16.3663 0.24879 16.9085 0.250135 17.4559V19.1667C0.250135 19.3877 0.337932 19.5997 0.494212 19.7559C0.650493 19.9122 0.862454 20 1.08347 20H2.7943C3.3416 20.0016 3.88378 19.8945 4.38943 19.6851C4.89509 19.4757 5.35418 19.1681 5.74013 18.78L19.2943 5.22586C19.8597 4.65935 20.1773 3.89166 20.1773 3.09127C20.1773 2.29088 19.8597 1.52319 19.2943 0.956689V0.956689ZM4.5618 17.6017C4.0918 18.0686 3.45677 18.3314 2.7943 18.3334H1.9168V17.4559C1.91596 17.1274 1.98026 16.8021 2.106 16.4987C2.23173 16.1953 2.4164 15.9199 2.6493 15.6884L12.9351 5.40252L14.8518 7.31919L4.5618 17.6017ZM18.1151 4.04752L16.0268 6.13669L14.1101 4.22419L16.1993 2.13502C16.3252 2.00945 16.4745 1.90989 16.6388 1.84203C16.8032 1.77417 16.9792 1.73935 17.157 1.73954C17.3348 1.73973 17.5108 1.77494 17.675 1.84316C17.8392 1.91137 17.9883 2.01126 18.1139 2.13711C18.2395 2.26296 18.339 2.41231 18.4069 2.57663C18.4747 2.74096 18.5096 2.91704 18.5094 3.09483C18.5092 3.27261 18.474 3.44862 18.4057 3.6128C18.3375 3.77698 18.2377 3.92611 18.1118 4.05169L18.1151 4.04752Z" fill="#374957"/>
</g>
<defs>
<clipPath id="clip0_23_3339">
<rect width="20" height="20" fill="white" transform="translate(0.25)"/>
</clipPath>
</defs>
</svg>
