<svg width="21" height="20" viewBox="0 0 21 20" fill="none" xmlns="http://www.w3.org/2000/svg">
<g clip-path="url(#clip0_23_3341)">
<path d="M17.75 3.33333H15.1666C14.9732 2.39284 14.4615 1.54779 13.7177 0.940598C12.9739 0.333408 12.0435 0.0012121 11.0833 0L9.41663 0C8.45646 0.0012121 7.52606 0.333408 6.78225 0.940598C6.03844 1.54779 5.52671 2.39284 5.33329 3.33333H2.74996C2.52895 3.33333 2.31698 3.42113 2.1607 3.57741C2.00442 3.73369 1.91663 3.94565 1.91663 4.16667C1.91663 4.38768 2.00442 4.59964 2.1607 4.75592C2.31698 4.9122 2.52895 5 2.74996 5H3.58329V15.8333C3.58462 16.938 4.02403 17.997 4.80514 18.7782C5.58626 19.5593 6.6453 19.9987 7.74996 20H12.75C13.8546 19.9987 14.9137 19.5593 15.6948 18.7782C16.4759 17.997 16.9153 16.938 16.9166 15.8333V5H17.75C17.971 5 18.1829 4.9122 18.3392 4.75592C18.4955 4.59964 18.5833 4.38768 18.5833 4.16667C18.5833 3.94565 18.4955 3.73369 18.3392 3.57741C18.1829 3.42113 17.971 3.33333 17.75 3.33333ZM9.41663 1.66667H11.0833C11.6002 1.6673 12.1042 1.82781 12.5263 2.1262C12.9484 2.42459 13.2678 2.84624 13.4408 3.33333H7.05913C7.23211 2.84624 7.55154 2.42459 7.97361 2.1262C8.39569 1.82781 8.89973 1.6673 9.41663 1.66667ZM15.25 15.8333C15.25 16.4964 14.9866 17.1323 14.5177 17.6011C14.0489 18.0699 13.413 18.3333 12.75 18.3333H7.74996C7.08692 18.3333 6.45103 18.0699 5.98219 17.6011C5.51335 17.1323 5.24996 16.4964 5.24996 15.8333V5H15.25V15.8333Z" fill="#374957"/>
<path d="M8.58333 14.9995C8.80434 14.9995 9.01631 14.9117 9.17259 14.7554C9.32887 14.5991 9.41666 14.3872 9.41666 14.1661V9.16616C9.41666 8.94514 9.32887 8.73318 9.17259 8.5769C9.01631 8.42062 8.80434 8.33282 8.58333 8.33282C8.36232 8.33282 8.15036 8.42062 7.99408 8.5769C7.8378 8.73318 7.75 8.94514 7.75 9.16616V14.1661C7.75 14.3872 7.8378 14.5991 7.99408 14.7554C8.15036 14.9117 8.36232 14.9995 8.58333 14.9995Z" fill="#374957"/>
<path d="M11.9165 14.9995C12.1375 14.9995 12.3495 14.9117 12.5058 14.7554C12.6621 14.5991 12.7499 14.3872 12.7499 14.1661V9.16616C12.7499 8.94514 12.6621 8.73318 12.5058 8.5769C12.3495 8.42062 12.1375 8.33282 11.9165 8.33282C11.6955 8.33282 11.4836 8.42062 11.3273 8.5769C11.171 8.73318 11.0832 8.94514 11.0832 9.16616V14.1661C11.0832 14.3872 11.171 14.5991 11.3273 14.7554C11.4836 14.9117 11.6955 14.9995 11.9165 14.9995Z" fill="#374957"/>
</g>
<defs>
<clipPath id="clip0_23_3341">
<rect width="20" height="20" fill="white" transform="translate(0.25)"/>
</clipPath>
</defs>
</svg>
